<?xml version="1.0" encoding="UTF-8" standalone="no"?>
<!-- Created with Inkscape (http://www.inkscape.org/) -->

<svg
   xmlns:dc="http://purl.org/dc/elements/1.1/"
   xmlns:cc="http://creativecommons.org/ns#"
   xmlns:rdf="http://www.w3.org/1999/02/22-rdf-syntax-ns#"
   xmlns:svg="http://www.w3.org/2000/svg"
   xmlns="http://www.w3.org/2000/svg"
   xmlns:xlink="http://www.w3.org/1999/xlink"
   xmlns:sodipodi="http://sodipodi.sourceforge.net/DTD/sodipodi-0.dtd"
   xmlns:inkscape="http://www.inkscape.org/namespaces/inkscape"
   id="svg2985"
   version="1.1"
   inkscape:version="0.48.0 r9654"
   width="8123"
   height="1657"
   sodipodi:docname="classdiagram.svg"
   inkscape:export-filename="classdiagram.png"
   inkscape:export-xdpi="90"
   inkscape:export-ydpi="90">
  <metadata
     id="metadata2991">
    <rdf:RDF>
      <cc:Work
         rdf:about="">
        <dc:format>image/svg+xml</dc:format>
        <dc:type
           rdf:resource="http://purl.org/dc/dcmitype/StillImage" />
        <dc:title />
      </cc:Work>
    </rdf:RDF>
  </metadata>
  <defs
     id="defs2989">
    <marker
       inkscape:stockid="Arrow1Mend"
       orient="auto"
       refY="0.0"
       refX="0.0"
       id="Arrow1Mend"
       style="overflow:visible;">
      <path
         id="path3777"
         d="M 0.0,0.0 L 5.0,-5.0 L -12.5,0.0 L 5.0,5.0 L 0.0,0.0 z "
         style="fill-rule:evenodd;stroke:#000000;stroke-width:1.0pt;marker-start:none;"
         transform="scale(0.4) rotate(180) translate(10,0)" />
    </marker>
    <marker
       inkscape:stockid="Scissors"
       orient="auto"
       refY="0.0"
       refX="0.0"
       id="Scissors"
       style="overflow:visible">
      <path
         id="schere"
         style="marker-start:none"
         d="M 9.0898857,-3.6061018 C 8.1198849,-4.7769976 6.3697607,-4.7358294 5.0623558,-4.2327734 L -3.1500488,-1.1548705 C -5.5383421,-2.4615840 -7.8983361,-2.0874077 -7.8983361,-2.7236578 C -7.8983361,-3.2209742 -7.4416699,-3.1119800 -7.5100293,-4.4068519 C -7.5756648,-5.6501286 -8.8736064,-6.5699315 -10.100428,-6.4884954 C -11.327699,-6.4958500 -12.599867,-5.5553341 -12.610769,-4.2584343 C -12.702194,-2.9520479 -11.603560,-1.7387447 -10.304005,-1.6532027 C -8.7816644,-1.4265411 -6.0857470,-2.3487593 -4.8210600,-0.082342643 C -5.7633447,1.6559151 -7.4350844,1.6607341 -8.9465707,1.5737277 C -10.201445,1.5014928 -11.708664,1.8611256 -12.307219,3.0945882 C -12.885586,4.2766744 -12.318421,5.9591904 -10.990470,6.3210002 C -9.6502788,6.8128279 -7.8098011,6.1912892 -7.4910978,4.6502760 C -7.2454393,3.4624530 -8.0864637,2.9043186 -7.7636052,2.4731223 C -7.5199917,2.1477623 -5.9728246,2.3362771 -3.2164999,1.0982979 L 5.6763468,4.2330688 C 6.8000164,4.5467672 8.1730685,4.5362646 9.1684433,3.4313614 L -0.051640930,-0.053722219 L 9.0898857,-3.6061018 z M -9.2179159,-5.5066058 C -7.9233569,-4.7838060 -8.0290767,-2.8230356 -9.3743431,-2.4433169 C -10.590861,-2.0196559 -12.145370,-3.2022863 -11.757521,-4.5207817 C -11.530373,-5.6026336 -10.104134,-6.0014137 -9.2179159,-5.5066058 z M -9.1616516,2.5107591 C -7.8108215,3.0096239 -8.0402087,5.2951947 -9.4138723,5.6023681 C -10.324932,5.9187072 -11.627422,5.4635705 -11.719569,4.3902287 C -11.897178,3.0851737 -10.363484,1.9060805 -9.1616516,2.5107591 z " />
    </marker>
    <marker
       inkscape:stockid="Torso"
       orient="auto"
       refY="0.0"
       refX="0.0"
       id="Torso"
       style="overflow:visible">
      <g
         id="g3981"
         transform="scale(0.7)">
        <path
           id="path3983"
           d="M -4.7792281,-3.2395420 C -2.4288541,-2.8736027 0.52103922,-1.3019943 0.25792722,0.38794346 C -0.0051877922,2.0778819 -2.2126741,2.6176539 -4.5630471,2.2517169 C -6.9134221,1.8857769 -8.5210350,0.75201414 -8.2579220,-0.93792336 C -7.9948090,-2.6278615 -7.1296041,-3.6054813 -4.7792281,-3.2395420 z "
           style="fill:none;fill-opacity:0.75000000;fill-rule:evenodd;stroke:#000000;stroke-width:1.2500000;marker-start:none;marker-mid:none;marker-end:none" />
        <path
           id="path3985"
           d="M 4.4598789,0.088665736 C -2.5564571,-4.3783320 5.2248769,-3.9061806 -0.84829578,-8.7197331"
           style="fill:none;fill-opacity:0.75000000;fill-rule:evenodd;stroke:#000000;stroke-width:1.0000000pt;marker-end:none" />
        <path
           id="path3987"
           d="M 4.9298719,0.057520736 C -1.3872731,1.7494689 1.8027579,5.4782079 -4.9448731,7.5462725"
           style="fill:none;fill-opacity:0.75000000;fill-rule:evenodd;stroke:#000000;stroke-width:1.0000000pt;marker-start:none;marker-end:none" />
        <rect
           id="rect3989"
           transform="matrix(0.527536,-0.849533,0.887668,0.460484,0,0)"
           y="-1.7408575"
           x="-10.391706"
           height="2.7608147"
           width="2.6366582"
           style="fill-rule:evenodd;stroke-width:1.0000000pt;marker-end:none" />
        <rect
           id="rect3991"
           transform="matrix(0.671205,-0.741272,0.790802,0.612072,0,0)"
           y="-7.9629307"
           x="4.9587269"
           height="2.8614161"
           width="2.7327356"
           style="fill-rule:evenodd;stroke-width:1.0000000pt;marker-end:none" />
        <path
           id="path3993"
           transform="matrix(0,-1.109517,1.109517,0,25.96648,19.71619)"
           d="m 16.779951,-28.685045 c 0,0.335412 -0.271905,0.607317 -0.607317,0.607317 -0.335412,0 -0.607317,-0.271905 -0.607317,-0.607317 0,-0.335412 0.271905,-0.607318 0.607317,-0.607318 0.335412,0 0.607317,0.271906 0.607317,0.607318 z"
           sodipodi:ry="0.60731727"
           sodipodi:rx="0.60731727"
           sodipodi:cy="-28.685045"
           sodipodi:cx="16.172634"
           style="fill:#ff0000;fill-opacity:0.75000000;fill-rule:evenodd;stroke:#000000;stroke-width:1.0000000pt;marker-start:none;marker-end:none"
           sodipodi:type="arc" />
        <path
           id="path3995"
           transform="matrix(0,-1.109517,1.109517,0,26.82450,16.99126)"
           d="m 16.779951,-28.685045 c 0,0.335412 -0.271905,0.607317 -0.607317,0.607317 -0.335412,0 -0.607317,-0.271905 -0.607317,-0.607317 0,-0.335412 0.271905,-0.607318 0.607317,-0.607318 0.335412,0 0.607317,0.271906 0.607317,0.607318 z"
           sodipodi:ry="0.60731727"
           sodipodi:rx="0.60731727"
           sodipodi:cy="-28.685045"
           sodipodi:cx="16.172634"
           style="fill:#ff0000;fill-opacity:0.75000000;fill-rule:evenodd;stroke:#000000;stroke-width:1.0000000pt;marker-start:none;marker-end:none"
           sodipodi:type="arc" />
      </g>
    </marker>
    <marker
       inkscape:stockid="Arrow1Lend"
       orient="auto"
       refY="0.0"
       refX="0.0"
       id="Arrow1Lend"
       style="overflow:visible;">
      <path
         id="path3771"
         d="M 0.0,0.0 L 5.0,-5.0 L -12.5,0.0 L 5.0,5.0 L 0.0,0.0 z "
         style="fill-rule:evenodd;stroke:#000000;stroke-width:1.0pt;marker-start:none;"
         transform="scale(0.8) rotate(180) translate(12.5,0)" />
    </marker>
    <marker
       inkscape:stockid="Arrow1Lstart"
       orient="auto"
       refY="0.0"
       refX="0.0"
       id="Arrow1Lstart"
       style="overflow:visible">
      <path
         id="path3768"
         d="M 0.0,0.0 L 5.0,-5.0 L -12.5,0.0 L 5.0,5.0 L 0.0,0.0 z "
         style="fill-rule:evenodd;stroke:#000000;stroke-width:1.0pt;marker-start:none"
         transform="scale(0.8) translate(12.5,0)" />
    </marker>
    <marker
       inkscape:stockid="EmptyDiamondLstart"
       orient="auto"
       refY="0.0"
       refX="0.0"
       id="EmptyDiamondLstart"
       style="overflow:visible">
      <path
         id="path3884"
         d="M 0,-7.0710768 L -7.0710894,0 L 0,7.0710589 L 7.0710462,0 L 0,-7.0710768 z "
         style="fill-rule:evenodd;fill:#FFFFFF;stroke:#000000;stroke-width:1.0pt;marker-start:none"
         transform="scale(0.8) translate(7,0)" />
    </marker>
    <marker
       inkscape:stockid="DotL"
       orient="auto"
       refY="0.0"
       refX="0.0"
       id="DotL"
       style="overflow:visible">
      <path
         id="path3830"
         d="M -2.5,-1.0 C -2.5,1.7600000 -4.7400000,4.0 -7.5,4.0 C -10.260000,4.0 -12.5,1.7600000 -12.5,-1.0 C -12.5,-3.7600000 -10.260000,-6.0 -7.5,-6.0 C -4.7400000,-6.0 -2.5,-3.7600000 -2.5,-1.0 z "
         style="fill-rule:evenodd;stroke:#000000;stroke-width:1.0pt;marker-start:none;marker-end:none"
         transform="scale(0.8) translate(7.4, 1)" />
    </marker>
    <marker
       inkscape:stockid="Arrow1Mend"
       orient="auto"
       refY="0"
       refX="0"
       id="Arrow1Mend-7"
       style="overflow:visible">
      <path
         inkscape:connector-curvature="0"
         id="path3777-4"
         d="M 0,0 5,-5 -12.5,0 5,5 0,0 z"
         style="fill-rule:evenodd;stroke:#000000;stroke-width:1pt;marker-start:none"
         transform="matrix(-0.4,0,0,-0.4,-4,0)" />
    </marker>
    <marker
       inkscape:stockid="Arrow1Mend"
       orient="auto"
       refY="0"
       refX="0"
       id="Arrow1Mend-8"
       style="overflow:visible">
      <path
         inkscape:connector-curvature="0"
         id="path3777-6"
         d="M 0,0 5,-5 -12.5,0 5,5 0,0 z"
         style="fill-rule:evenodd;stroke:#000000;stroke-width:1pt;marker-start:none"
         transform="matrix(-0.4,0,0,-0.4,-4,0)" />
    </marker>
    <marker
       inkscape:stockid="Arrow1Mend"
       orient="auto"
       refY="0"
       refX="0"
       id="Arrow1Mend-70"
       style="overflow:visible">
      <path
         inkscape:connector-curvature="0"
         id="path3777-9"
         d="M 0,0 5,-5 -12.5,0 5,5 0,0 z"
         style="fill-rule:evenodd;stroke:#000000;stroke-width:1pt;marker-start:none"
         transform="matrix(-0.4,0,0,-0.4,-4,0)" />
    </marker>
    <marker
       inkscape:stockid="Arrow1Mend"
       orient="auto"
       refY="0"
       refX="0"
       id="Arrow1Mend-76"
       style="overflow:visible">
      <path
         inkscape:connector-curvature="0"
         id="path3777-8"
         d="M 0,0 5,-5 -12.5,0 5,5 0,0 z"
         style="fill-rule:evenodd;stroke:#000000;stroke-width:1pt;marker-start:none"
         transform="matrix(-0.4,0,0,-0.4,-4,0)" />
    </marker>
    <marker
       inkscape:stockid="Arrow1Mend"
       orient="auto"
       refY="0"
       refX="0"
       id="Arrow1Mend-5"
       style="overflow:visible">
      <path
         inkscape:connector-curvature="0"
         id="path3777-1"
         d="M 0,0 5,-5 -12.5,0 5,5 0,0 z"
         style="fill-rule:evenodd;stroke:#000000;stroke-width:1pt;marker-start:none"
         transform="matrix(-0.4,0,0,-0.4,-4,0)" />
    </marker>
    <marker
       inkscape:stockid="Arrow1Mend"
       orient="auto"
       refY="0"
       refX="0"
       id="Arrow1Mend-9"
       style="overflow:visible">
      <path
         inkscape:connector-curvature="0"
         id="path3777-7"
         d="M 0,0 5,-5 -12.5,0 5,5 0,0 z"
         style="fill-rule:evenodd;stroke:#000000;stroke-width:1pt;marker-start:none"
         transform="matrix(-0.4,0,0,-0.4,-4,0)" />
    </marker>
    <marker
       inkscape:stockid="Arrow1Mend"
       orient="auto"
       refY="0"
       refX="0"
       id="Arrow1Mend-4"
       style="overflow:visible">
      <path
         inkscape:connector-curvature="0"
         id="path3777-0"
         d="M 0,0 5,-5 -12.5,0 5,5 0,0 z"
         style="fill-rule:evenodd;stroke:#000000;stroke-width:1pt;marker-start:none"
         transform="matrix(-0.4,0,0,-0.4,-4,0)" />
    </marker>
  </defs>
  <sodipodi:namedview
     pagecolor="#ffffff"
     bordercolor="#666666"
     borderopacity="1"
     objecttolerance="10"
     gridtolerance="10"
     guidetolerance="10"
     inkscape:pageopacity="0"
     inkscape:pageshadow="2"
     inkscape:window-width="1360"
     inkscape:window-height="706"
     id="namedview2987"
     showgrid="false"
     inkscape:zoom="0.088388348"
     inkscape:cx="5350.2102"
     inkscape:cy="663.21778"
     inkscape:window-x="-8"
     inkscape:window-y="-8"
     inkscape:window-maximized="1"
     inkscape:current-layer="svg2985" />
  <image
     sodipodi:absref="C:\Users\Kha\Documents\Projekte\pse\entwurfsheft\Diagrams\../../implementation/yuv.png"
     xlink:href="../../implementation/yuv.png"
     style="fill:none;stroke:#d38d5f;stroke-width:2;stroke-miterlimit:4;stroke-dasharray:4, 2;stroke-dashoffset:0"
     width="8123"
     height="1657"
     id="image6179"
     x="0"
     y="0" />
  <path
     style="fill:none;stroke:#d38d5f;stroke-width:2;stroke-linecap:butt;stroke-linejoin:miter;stroke-opacity:1;marker-mid:none;stroke-miterlimit:4;stroke-dasharray:4, 2;stroke-dashoffset:0;color:#000000;marker:none;marker-end:url(#Arrow1Mend);visibility:visible;display:inline;overflow:visible;enable-background:accumulate"
     d="m 4231.327,627.45253 -3575.13191,0"
     id="path6590"
     inkscape:connector-curvature="0" />
  <path
     style="fill:none;stroke:#d38d5f;stroke-width:2;stroke-linecap:butt;stroke-linejoin:miter;stroke-opacity:1;marker-mid:none;stroke-miterlimit:4;stroke-dasharray:4, 2;stroke-dashoffset:0"
     d="m 1026.719,896.1531 0,-268.70057"
     id="path6592"
     inkscape:connector-curvature="0" />
  <path
     style="fill:none;stroke:#d38d5f;stroke-width:2;stroke-linecap:butt;stroke-linejoin:miter;stroke-opacity:1;marker-mid:none;stroke-miterlimit:4;stroke-dasharray:4, 2;stroke-dashoffset:0"
     d="m 1298.248,1089.9004 0,-461.03366"
     id="path6594"
     inkscape:connector-curvature="0" />
  <path
     style="fill:none;stroke:#d38d5f;stroke-width:2;stroke-linecap:butt;stroke-linejoin:miter;stroke-opacity:1;marker-mid:none;stroke-miterlimit:4;stroke-dasharray:4, 2;stroke-dashoffset:0"
     d="m 1383.1009,897.56732 0,-270.11479"
     id="path6596"
     inkscape:connector-curvature="0" />
  <path
     style="fill:none;stroke:#d38d5f;stroke-width:2;stroke-linecap:butt;stroke-linejoin:miter;stroke-opacity:1;marker-mid:none;stroke-miterlimit:4;stroke-dasharray:4, 2;stroke-dashoffset:0"
     d="m 1476.439,657.15101 0,-29.69848"
     id="path6598"
     inkscape:connector-curvature="0" />
  <path
     style="fill:none;stroke:#d38d5f;stroke-width:2;stroke-linecap:butt;stroke-linejoin:miter;stroke-miterlimit:4;stroke-opacity:1;stroke-dasharray:4, 2;stroke-dashoffset:0;marker-mid:none"
     d="m 1768.838,1088.4861 0,-461.03357"
     id="path6602"
     inkscape:connector-curvature="0" />
  <path
     style="fill:none;stroke:#d38d5f;stroke-width:2;stroke-linecap:butt;stroke-linejoin:miter;stroke-opacity:1;marker-mid:none;stroke-miterlimit:4;stroke-dasharray:4, 2;stroke-dashoffset:0"
     d="m 1883.7325,682.60686 0,-53.74012"
     id="path6604"
     inkscape:connector-curvature="0" />
  <path
     style="fill:none;stroke:#d38d5f;stroke-width:2;stroke-linecap:butt;stroke-linejoin:miter;stroke-opacity:1;marker-mid:none;stroke-miterlimit:4;stroke-dasharray:4, 2;stroke-dashoffset:0"
     d="m 2221.7295,681.19264 0,-53.74011"
     id="path6606"
     inkscape:connector-curvature="0" />
  <path
     style="fill:none;stroke:#d38d5f;stroke-width:2;stroke-linecap:butt;stroke-linejoin:miter;stroke-opacity:1;marker-mid:none;stroke-miterlimit:4;stroke-dasharray:4, 2;stroke-dashoffset:0"
     d="m 2538.5133,920.19473 0,-291.32799"
     id="path6608"
     inkscape:connector-curvature="0" />
  <path
     style="fill:none;stroke:#d38d5f;stroke-width:2;stroke-linecap:butt;stroke-linejoin:miter;stroke-opacity:1;marker-mid:none;stroke-miterlimit:4;stroke-dasharray:4, 2;stroke-dashoffset:0"
     d="m 2688.42,681.19264 0,-52.3259"
     id="path6610"
     inkscape:connector-curvature="0" />
  <path
     style="fill:none;stroke:#d38d5f;stroke-width:2;stroke-linecap:butt;stroke-linejoin:miter;stroke-opacity:1;marker-mid:none;stroke-miterlimit:4;stroke-dasharray:4, 2;stroke-dashoffset:0"
     d="m 2969.8485,920.19473 0,-291.32799"
     id="path6612"
     inkscape:connector-curvature="0" />
  <path
     style="fill:none;stroke:#d38d5f;stroke-width:2;stroke-linecap:butt;stroke-linejoin:miter;stroke-opacity:1;marker-mid:none;stroke-miterlimit:4;stroke-dasharray:4, 2;stroke-dashoffset:0"
     d="m 3098.5419,679.77843 0,-50.91169"
     id="path6614"
     inkscape:connector-curvature="0" />
  <path
     style="fill:none;stroke:#d38d5f;stroke-width:2;stroke-linecap:butt;stroke-linejoin:miter;stroke-opacity:1;marker-mid:none;stroke-miterlimit:4;stroke-dasharray:4, 2;stroke-dashoffset:0"
     d="m 3399.7694,920.19473 0,-292.7422"
     id="path6616"
     inkscape:connector-curvature="0" />
  <path
     style="fill:none;stroke:#d38d5f;stroke-width:2;stroke-linecap:butt;stroke-linejoin:miter;stroke-opacity:1;marker-mid:none;stroke-miterlimit:4;stroke-dasharray:4, 2;stroke-dashoffset:0"
     d="m 3548.2618,679.77843 0,-52.3259"
     id="path6618"
     inkscape:connector-curvature="0" />
  <path
     style="fill:none;stroke:#d38d5f;stroke-width:2;stroke-linecap:butt;stroke-linejoin:miter;stroke-opacity:1;marker-mid:none;stroke-miterlimit:4;stroke-dasharray:4, 2;stroke-dashoffset:0"
     d="m 2739.3317,599.16826 0,29.69848"
     id="path6620"
     inkscape:connector-curvature="0" />
  <path
     style="fill:none;stroke:#d38d5f;stroke-width:2;stroke-linecap:butt;stroke-linejoin:miter;stroke-opacity:1;marker-mid:none;stroke-miterlimit:4;stroke-dasharray:4, 2;stroke-dashoffset:0"
     d="m 3906.0579,897.56732 0,-270.11479"
     id="path6622"
     inkscape:connector-curvature="0" />
  <path
     style="fill:none;stroke:#d38d5f;stroke-width:2;stroke-linecap:butt;stroke-linejoin:miter;stroke-opacity:1;marker-mid:none;stroke-miterlimit:4;stroke-dasharray:4, 2;stroke-dashoffset:0"
     d="m 4234.1554,681.19264 0,-55.15433"
     id="path6624"
     inkscape:connector-curvature="0" />
  <path
     style="fill:none;stroke:#d38d5f;stroke-width:2;stroke-linecap:butt;stroke-linejoin:miter;stroke-opacity:1;marker-mid:none;stroke-miterlimit:4;stroke-dasharray:4, 2;stroke-dashoffset:0"
     d="m 4049.0356,1381.2284 0,-752.36166"
     id="path6626"
     inkscape:connector-curvature="0" />
  <path
     style="fill:none;stroke:#d38d5f;stroke-width:2;stroke-linecap:butt;stroke-linejoin:miter;stroke-opacity:1;marker-mid:none;stroke-miterlimit:4;stroke-dasharray:4, 2;stroke-dashoffset:0"
     d="m 3989.4965,1207.2801 57.9827,0"
     id="path6628"
     inkscape:connector-curvature="0" />
  <path
     style="fill:none;stroke:#d38d5f;stroke-width:2;stroke-linecap:butt;stroke-linejoin:miter;stroke-opacity:1;marker-mid:none;stroke-miterlimit:4;stroke-dasharray:4, 2;stroke-dashoffset:0"
     d="m 4013.5381,1379.8141 36.7695,0"
     id="path6630"
     inkscape:connector-curvature="0" />
  <path
     style="fill:none;stroke:#d38d5f;stroke-width:2;stroke-linecap:butt;stroke-linejoin:miter;stroke-opacity:1;marker-mid:none;stroke-miterlimit:4;stroke-dasharray:4, 2;stroke-dashoffset:0"
     d="m 4543.8682,896.1531 0,-269.16743 -311.127,0"
     id="path6632"
     inkscape:connector-curvature="0" />
  <path
     style="fill:none;stroke:#d38d5f;stroke-width:2;stroke-linecap:butt;stroke-linejoin:miter;stroke-opacity:1;marker-mid:none;stroke-miterlimit:4;stroke-dasharray:4, 2;stroke-dashoffset:0"
     d="m 4497.1991,1136.5694 0,-55.1543 -448.3057,0"
     id="path6634"
     inkscape:connector-curvature="0" />
  <path
     style="fill:none;stroke:#d38d5f;stroke-width:2;stroke-linecap:butt;stroke-linejoin:miter;stroke-opacity:1;marker-mid:none;stroke-miterlimit:4;stroke-dasharray:4, 2;stroke-dashoffset:0"
     d="m 5378.2542,889.08204 -685.8936,0 0,-329.51176 -1834.235,0"
     id="path6636"
     inkscape:connector-curvature="0" />
  <path
     style="fill:none;stroke:#d38d5f;stroke-width:2;stroke-linecap:butt;stroke-linejoin:miter;stroke-opacity:1;color:#000000;stroke-miterlimit:4;stroke-dasharray:4, 2;stroke-dashoffset:0;marker:none;marker-end:url(#Arrow1Mend);visibility:visible;display:inline;overflow:visible;enable-background:accumulate"
     d="m 2064.0447,111.26458 -91.9239,0"
     id="path7467"
     inkscape:connector-curvature="0" />
  <path
     style="fill:none;stroke:#d38d5f;stroke-width:2;stroke-linecap:butt;stroke-linejoin:miter;stroke-opacity:1;color:#000000;stroke-miterlimit:4;stroke-dasharray:4, 2;stroke-dashoffset:0;marker:none;marker-end:url(#Arrow1Mend);visibility:visible;display:inline;overflow:visible;enable-background:accumulate"
     d="m 2712.4616,225.81588 0,-57.98276"
     id="path7479"
     inkscape:connector-curvature="0" />
  <path
     style="fill:none;stroke:#d38d5f;stroke-width:2;stroke-linecap:butt;stroke-linejoin:miter;stroke-opacity:1;color:#000000;stroke-miterlimit:4;stroke-dasharray:4, 2;stroke-dashoffset:0;marker:none;marker-end:url(#Arrow1Mend);visibility:visible;display:inline;overflow:visible;enable-background:accumulate"
     d="m 2713.8758,432.29106 0,57.98275"
     id="path7491"
     inkscape:connector-curvature="0" />
  <path
     style="fill:none;stroke:#d38d5f;stroke-width:2;stroke-linecap:butt;stroke-linejoin:miter;stroke-opacity:1;color:#000000;stroke-miterlimit:4;stroke-dasharray:4, 2;stroke-dashoffset:0;marker:none;marker-end:url(#Arrow1Mend);visibility:visible;display:inline;overflow:visible;enable-background:accumulate"
     d="m 486.48947,392.69308 0,73.5391"
     id="path7503"
     inkscape:connector-curvature="0" />
  <path
     style="fill:none;stroke:#d38d5f;stroke-width:2;stroke-linecap:butt;stroke-linejoin:miter;stroke-opacity:1;color:#000000;stroke-miterlimit:4;stroke-dasharray:4, 2;stroke-dashoffset:0;marker:none;marker-end:url(#Arrow1Mend);visibility:visible;display:inline;overflow:visible;enable-background:accumulate"
     d="m 1632.0025,1270.9197 -920.65308,-2 0,-1072.80231 -130.10765,0"
     id="path7515"
     inkscape:connector-curvature="0" />
  <path
     style="fill:none;stroke:#d38d5f;stroke-width:2;stroke-linecap:butt;stroke-linejoin:miter;stroke-opacity:1;color:#000000;stroke-miterlimit:4;stroke-dasharray:4, 2;stroke-dashoffset:0;marker:none;visibility:visible;display:inline;overflow:visible;enable-background:accumulate"
     d="m 1708.37,579.36927 0,49.49747"
     id="path7527"
     inkscape:connector-curvature="0" />
  <path
     style="fill:none;stroke:#d38d5f;stroke-width:2;stroke-linecap:butt;stroke-linejoin:miter;stroke-opacity:1;color:#000000;stroke-miterlimit:4;stroke-dasharray:4, 2;stroke-dashoffset:0;marker:none;marker-end:url(#Arrow1Mend);visibility:visible;display:inline;overflow:visible;enable-background:accumulate"
     d="m 4699.4317,1384.0568 0,316.7838 -4146.4742,-2 0,-944.10885"
     id="path7569"
     inkscape:connector-curvature="0" />
  <path
     style="fill:none;stroke:#d38d5f;stroke-width:2;stroke-linecap:butt;stroke-linejoin:miter;stroke-opacity:1;color:#000000;stroke-miterlimit:4;stroke-dasharray:4, 2;stroke-dashoffset:0;marker:none;visibility:visible;display:inline;overflow:visible;enable-background:accumulate"
     d="m 4635.7921,1453.3532 63.6396,0"
     id="path7581"
     inkscape:connector-curvature="0" />
  <path
     style="fill:none;stroke:#d38d5f;stroke-width:2;stroke-linecap:butt;stroke-linejoin:miter;stroke-opacity:1;color:#000000;stroke-miterlimit:4;stroke-dasharray:4, 2;stroke-dashoffset:0;marker:none;visibility:visible;display:inline;overflow:visible;enable-background:accumulate"
     d="m 4036.1655,1528.3066 666.0946,0"
     id="path7600"
     inkscape:connector-curvature="0" />
</svg>
